<svg width="640" height="360" viewBox="0 0 640 360" fill="none" xmlns="http://www.w3.org/2000/svg">
<defs>
  <linearGradient id="p2a" x1="60" y1="40" x2="560" y2="320" gradientUnits="userSpaceOnUse">
    <stop stop-color="#2563eb"/>
    <stop offset="1" stop-color="#7c3aed"/>
  </linearGradient>
  <linearGradient id="p2b" x1="140" y1="120" x2="520" y2="260" gradientUnits="userSpaceOnUse">
    <stop stop-color="#0b1222" stop-opacity="0.85"/>
    <stop offset="1" stop-color="#2563eb" stop-opacity="0.25"/>
  </linearGradient>
</defs>
<rect width="640" height="360" rx="28" fill="#0f172a"/>
<rect x="32" y="30" width="576" height="300" rx="24" fill="#0b1222" stroke="#1f2937" stroke-width="2"/>
<rect x="70" y="90" width="500" height="220" rx="18" fill="url(#p2b)" stroke="#1f2937"/>
<rect x="90" y="114" width="460" height="32" rx="12" fill="#111827" stroke="#1f2937"/>
<circle cx="114" cy="130" r="8" fill="#2563eb"/>
<circle cx="136" cy="130" r="8" fill="#7c3aed"/>
<circle cx="158" cy="130" r="8" fill="#22d3ee"/>
<rect x="120" y="170" width="180" height="120" rx="12" fill="#0b1222" stroke="#1f2937"/>
<rect x="320" y="170" width="180" height="120" rx="12" fill="#0b1222" stroke="#1f2937"/>
<rect x="134" y="186" width="152" height="12" rx="6" fill="#2563eb" opacity="0.9"/>
<rect x="134" y="206" width="120" height="12" rx="6" fill="#94a3b8" opacity="0.7"/>
<rect x="134" y="226" width="96" height="12" rx="6" fill="#475569" opacity="0.6"/>
<rect x="334" y="186" width="152" height="12" rx="6" fill="#7c3aed" opacity="0.9"/>
<rect x="334" y="206" width="120" height="12" rx="6" fill="#94a3b8" opacity="0.7"/>
<rect x="334" y="226" width="96" height="12" rx="6" fill="#475569" opacity="0.6"/>
<path d="M120 320c30-18 70-28 110-20s56 14 92 4 88-32 128-18 60 44 90 48" stroke="url(#p2a)" stroke-width="4" stroke-linecap="round" opacity="0.7"/>
</svg>
