<svg width="640" height="360" viewBox="0 0 640 360" fill="none" xmlns="http://www.w3.org/2000/svg">
<defs>
  <linearGradient id="g1" x1="40" y1="320" x2="560" y2="40" gradientUnits="userSpaceOnUse">
    <stop stop-color="#0ea5e9"/>
    <stop offset="1" stop-color="#7367f8"/>
  </linearGradient>
  <linearGradient id="g2" x1="120" y1="80" x2="520" y2="280" gradientUnits="userSpaceOnUse">
    <stop stop-color="#0f172a" stop-opacity="0.7"/>
    <stop offset="1" stop-color="#0ea5e9" stop-opacity="0.2"/>
  </linearGradient>
</defs>
<rect width="640" height="360" rx="28" fill="#0b1222"/>
<rect x="36" y="32" width="568" height="296" rx="22" fill="#0f172a" stroke="#182136" stroke-width="2"/>
<rect x="60" y="88" width="520" height="216" rx="18" fill="url(#g2)" stroke="#1f2937"/>
<circle cx="96" cy="76" r="6" fill="#0ea5e9"/>
<circle cx="116" cy="76" r="6" fill="#22d3ee"/>
<circle cx="136" cy="76" r="6" fill="#7367f8"/>
<path d="M180 148h220c16 0 30 14 30 30s-14 30-30 30H180c-16 0-30-14-30-30s14-30 30-30z" fill="url(#g1)" opacity="0.8"/>
<rect x="180" y="198" width="160" height="12" rx="6" fill="#e2e8f0" opacity="0.8"/>
<rect x="180" y="222" width="220" height="12" rx="6" fill="#94a3b8" opacity="0.6"/>
<rect x="180" y="246" width="120" height="12" rx="6" fill="#475569" opacity="0.5"/>
<rect x="420" y="148" width="120" height="96" rx="14" fill="#0b1222" stroke="#1e293b"/>
<circle cx="448" cy="176" r="12" fill="#22d3ee" opacity="0.9"/>
<circle cx="488" cy="188" r="18" fill="#7367f8" opacity="0.8"/>
<circle cx="524" cy="208" r="16" fill="#0ea5e9" opacity="0.7"/>
<path d="M440 240h92" stroke="#334155" stroke-width="3" stroke-linecap="round"/>
<path d="M440 256h72" stroke="#334155" stroke-width="3" stroke-linecap="round"/>
</svg>
